<svg version="1.1" xmlns="http://www.w3.org/2000/svg" viewBox="0 0 860.5 453.41338064969443" width="860.5" height="453.41338064969443">
  <!-- svg-source:excalidraw -->
  
  <defs>
    <style>
      @font-face {
        font-family: "Virgil";
        src: url("https://excalidraw.com/Virgil.woff2");
      }
      @font-face {
        font-family: "Cascadia";
        src: url("https://excalidraw.com/Cascadia.woff2");
      }
    </style>
  </defs>
  <rect x="0" y="0" width="860.5" height="453.41338064969443" fill="#ffffff"></rect><g stroke-linecap="round" transform="translate(352 26) rotate(0 73 50)"><path d="M0.02 -0.28 C55.78 -0.67, 108.21 2.13, 144.95 1.68 M-0.66 -0.81 C41.14 -0.6, 82.66 -1.26, 145.93 -0.65 M144.43 -1.13 C146.37 29.85, 144.84 59.81, 147.74 98.64 M146.62 -0.4 C146.73 24.79, 146.28 47.94, 145.68 99.44 M147.8 98.03 C113.93 101.35, 77.45 99.99, -1.82 100.7 M145.9 100.65 C93.34 102.13, 39.82 100.62, -0.6 100.46 M-1.54 101.6 C-1.44 68.41, 0.2 35.6, 1.39 1.14 M-0.69 99.05 C0.99 71.02, 1.6 40.39, -0.83 0.08" stroke="#000000" stroke-width="1" fill="none"></path></g><g stroke-linecap="round" transform="translate(352 10) rotate(0 72.5 14)"><path d="M2.17 9.84 C2.17 9.84, 2.17 9.84, 2.17 9.84 M2.17 9.84 C2.17 9.84, 2.17 9.84, 2.17 9.84 M2.59 14.92 C4.61 13.25, 5.11 10.83, 9.48 8.71 M2.41 15.54 C3.78 13.75, 5.41 12.38, 8.87 8.2 M6.37 20.38 C8.93 16.27, 13 10.12, 17.72 4.96 M4.49 18.46 C7.45 16.76, 10.64 13.33, 16.76 5.98 M9.66 21.22 C10.62 18.2, 14.04 13.83, 21.16 7.47 M9.64 20.53 C13.81 14.7, 19.05 8.37, 22.46 5.53 M11.68 21.25 C18.07 17.27, 25.22 8.1, 26.41 5.66 M12.08 21.84 C17.6 15.76, 21.83 11.88, 27.15 5.43 M17.81 24.81 C21.83 17.6, 26.47 11.99, 32.43 3.97 M16.78 24.17 C23.13 17.1, 28.47 10.44, 34.19 2.89 M21.71 23.86 C27.1 16.26, 36.35 8.16, 40.15 4.12 M21.92 24.63 C24.24 20.7, 28.86 15.12, 39.53 3.25 M23.96 26.77 C30.32 16.44, 39.31 10.03, 45.34 2.73 M25 25.97 C31.87 18.38, 39.18 9.48, 46.89 0.97 M27.75 28.88 C33.88 21.69, 39.11 14.1, 51.06 2.51 M29.4 27.74 C35.33 21.59, 39.07 15.78, 52.18 0.31 M32.75 26.66 C43.15 18.95, 49.69 13.1, 58.14 0.82 M34.09 28.13 C41.57 19.19, 48.8 11.36, 56.73 2.63 M38.17 28.9 C46.56 20.63, 52.08 12, 62.74 1.65 M39.54 27.83 C47.62 19.47, 56.49 8.59, 62.78 1.95 M45.85 28.9 C51.1 17.02, 61.37 9.56, 68.4 0.81 M44.63 27.8 C52.24 18.77, 59.14 9.89, 66.33 2.87 M50.73 28.91 C56.3 22.61, 59.86 16.96, 73.63 3.68 M49.99 28.48 C57.1 20.09, 66.3 9.6, 72.59 1.87 M53.92 30.04 C62.63 21.08, 71.63 11.84, 75.76 1.25 M54.89 27.26 C59.56 22.82, 65.09 17.16, 76.65 2.13 M58.51 27.79 C64.16 20.88, 70.98 16.37, 84.64 2.72 M59.93 28.69 C65.21 21.2, 72.52 14.87, 83.06 1.72 M66.63 29.33 C69.96 22.19, 74.67 15.26, 87.84 2.04 M65.91 27.48 C75.22 18.19, 83.4 8.41, 87.84 2.79 M72.61 28.1 C78.23 18.26, 86.36 10.37, 92.33 2.5 M69.82 27.66 C75.18 23.71, 81.25 16.63, 94.03 1.83 M76.66 28.37 C82.15 22, 88.07 14.34, 97.63 3.27 M76.45 28.84 C83.82 17.94, 91.32 10.45, 99.67 2.87 M82.12 27.79 C87.35 21.15, 93.41 14.07, 104.27 5.46 M82.35 27.46 C88.24 19.51, 96.35 10.88, 102.1 3.2 M89.04 29.95 C92.98 22.75, 100.88 14.96, 108.13 4.68 M87.38 28.92 C92.33 21.93, 99.39 13.99, 107.15 4.59 M92.14 26.21 C98.96 19.36, 109.56 8.36, 113.68 5.39 M93.43 28.12 C97.31 21.88, 102.13 17.55, 112.22 3.24 M99.79 27.25 C104.54 20.28, 113.47 8.69, 118.32 7.16 M99.28 26.67 C102.81 21.15, 107.54 16.76, 117.49 4.81 M104.48 27.63 C110.55 20.86, 115.72 13.24, 122.83 5.01 M103.91 26.08 C111.86 18.77, 116.6 11.45, 122.17 6.3 M108.62 27.38 C115.46 18.3, 122.97 11.52, 125.2 7.24 M110.16 25.01 C115.15 19.28, 122.46 12.31, 127.19 6.6 M114.94 23.99 C120.43 20.38, 124.16 18.84, 129.65 8.7 M115.91 25.96 C119.81 22.14, 122.2 16.4, 130.09 7.39 M120.92 25.32 C125.02 19.72, 129.47 15.46, 134.47 10.39 M122.44 23.76 C127.56 18.39, 131.62 12.89, 135.65 9.42 M126 25.86 C130.68 18.97, 136.05 13.13, 141.08 9.24 M126.41 24.55 C130.76 20.34, 135.23 15.51, 138.85 9.94 M134.88 24.02 C136.56 17.75, 140.69 14.9, 144.37 10.85 M133.52 23.02 C138.08 18.27, 140.88 15.11, 144.13 11.76" stroke="#868e96" stroke-width="0.5" fill="none"></path><path d="M53.69 -0.27 C64.56 -1.12, 79.43 -0.86, 91.23 -0.12 C103.02 0.63, 115.82 2.52, 124.45 4.21 C133.07 5.89, 139.95 7.75, 142.97 9.97 C145.99 12.2, 145.61 15.35, 142.56 17.55 C139.52 19.75, 133.18 21.63, 124.69 23.18 C116.21 24.74, 103.53 26.21, 91.65 26.87 C79.76 27.53, 64.93 27.51, 53.38 27.14 C41.83 26.78, 30.74 26.43, 22.33 24.69 C13.91 22.94, 6.23 19.14, 2.87 16.67 C-0.49 14.2, -0.85 11.89, 2.15 9.86 C5.16 7.82, 12.02 5.96, 20.89 4.46 C29.76 2.96, 49 1.57, 55.37 0.86 C61.74 0.15, 58.85 0.1, 59.12 0.23 M65.09 0.07 C76.5 -0.56, 91.84 0.37, 102.86 1.38 C113.87 2.4, 124.02 4.2, 131.17 6.17 C138.32 8.14, 144.36 11, 145.78 13.21 C147.19 15.41, 145.05 17.42, 139.65 19.4 C134.26 21.37, 123.37 23.51, 113.41 25.04 C103.45 26.56, 91.8 28.45, 79.87 28.53 C67.95 28.62, 53.06 26.73, 41.87 25.54 C30.68 24.35, 19.85 23.19, 12.71 21.38 C5.57 19.58, 0.02 16.71, -0.96 14.7 C-1.94 12.69, 1.34 11.19, 6.81 9.34 C12.28 7.49, 22.09 5.33, 31.85 3.6 C41.6 1.87, 59.77 -0.51, 65.32 -1.03 C70.88 -1.55, 64.77 -0.03, 65.16 0.49" stroke="#000000" stroke-width="1" fill="none"></path></g><g stroke-linecap="round" transform="translate(10 41) rotate(0 73.5 34.5)"><path d="M1.6 -1.96 C37.45 0.82, 73.68 2.52, 148.14 -0.1 M-0.95 0.06 C30.96 1.69, 60.28 0.19, 147.08 -0.5 M148.13 -1.04 C148.53 16.18, 145.85 32.94, 147.32 67.65 M146.72 0.74 C146.05 21.18, 147.4 42.87, 147.71 69.16 M148.77 70.5 C87.5 69.14, 28.78 69.36, -1.85 67.87 M146.07 69.16 C115.5 70.07, 84.94 70.19, -0.25 69.11 M-1.34 67.08 C0.87 42.85, 0.49 17.79, 0.47 0.11 M-0.77 69.31 C-0.75 43.85, -0.84 18.05, 0.88 -0.89" stroke="#5f3dc4" stroke-width="1" fill="none"></path></g><g transform="translate(38 59) rotate(0 44.5 17.5)"><text x="0" y="25" font-family="Virgil, Segoe UI Emoji" font-size="28px" fill="#343a40" text-anchor="start" style="white-space: pre;" direction="ltr">Sensor</text></g><g stroke-linecap="round" transform="translate(685 328) rotate(0 73 50)"><path d="M1.47 -1.05 C56.35 -1.97, 114.17 -0.33, 147.51 -1.82 M0.35 0.25 C46.3 1.41, 93.7 1.04, 146.95 0.96 M147.92 1.99 C147.38 39.88, 144.32 77.55, 147.55 100.33 M146.48 0.97 C145.53 34.72, 145.55 68.55, 145.77 99.96 M146.2 100.6 C104.99 99.96, 60.36 99.58, -0.88 99.39 M145.35 100.73 C107.97 98.45, 72.12 99.04, -0.64 100.18 M-1.88 101.95 C0.23 74.75, 0.49 51.69, -0.23 1.64 M0.77 100.91 C0.94 61.84, 0.35 24.19, 0.03 -0.69" stroke="#000000" stroke-width="1" fill="none"></path></g><g stroke-linecap="round" transform="translate(685 312) rotate(0 72.5 14)"><path d="M1.26 11.7 C1.26 11.7, 1.26 11.7, 1.26 11.7 M1.26 11.7 C1.26 11.7, 1.26 11.7, 1.26 11.7 M3.57 15.08 C4.76 12.78, 6.92 11.12, 9.35 7.67 M3.9 15.04 C4.86 13.65, 6.55 11.85, 9.88 8.38 M4.79 18.25 C10.26 15.83, 13.19 10.04, 15.92 6.31 M6.41 17.83 C9 14.84, 13.57 9.65, 16.4 6.59 M9.39 22.5 C13.56 14.51, 18.56 11.91, 22.07 7.32 M8.18 21.16 C12.58 15.61, 17.83 10.88, 22.56 6.19 M13.82 21.79 C15.23 17.61, 20.51 16.41, 28.52 3.73 M12.74 22.51 C18.2 17.39, 21.55 12.57, 28.86 5.43 M18.72 23.02 C21.49 17.19, 28.77 9.62, 32.45 3.62 M17.54 24 C20.57 19.49, 26.58 12.49, 33.07 4.9 M21.39 24.07 C25 17.28, 33 13.72, 40.31 2.17 M20.68 24.88 C25.45 19.96, 29.82 15.6, 40.58 2.84 M23.93 26.37 C33.75 17.17, 41.68 7.9, 47.77 3.08 M25.38 26.9 C31.02 20.52, 34.2 15.5, 45.17 2.51 M29.84 27.4 C36.65 20.68, 46.54 10.28, 50.31 4.51 M29.13 26.55 C34.81 21.65, 40.23 16.81, 51.22 2.93 M35.21 26.33 C43.24 19.34, 49.54 10.54, 55.69 3.53 M34.56 27.6 C39.93 23, 45.35 16.62, 56.87 3.21 M39.99 25.98 C48.5 18.68, 53.49 12.95, 63.31 2.27 M41.43 26.89 C45.87 20.73, 52.18 13.76, 63.03 1.54 M45.89 28.03 C56.18 18.46, 63.43 8.65, 67.33 1.39 M46.09 28.38 C50.83 21.92, 56.54 14.96, 67.14 2.51 M52.24 29.64 C58.83 16.85, 66.67 9.99, 74.63 3.28 M50.04 27.63 C59.44 17.36, 67.25 8.89, 72.82 1.11 M55.87 28.95 C65.92 18.75, 75.52 5.66, 76.67 1.2 M55.52 28.13 C62.57 19.86, 69.1 13.6, 78.35 1.78 M60.41 28.76 C67.37 21.85, 75.69 12.55, 81.41 4.26 M61.35 28.8 C66.12 21.89, 71.1 15.73, 82.27 2.17 M66.79 30.92 C72.98 18.72, 80.98 11.29, 87.16 4.32 M65.2 29.3 C70.46 22.84, 75.39 17.34, 87.85 1.94 M70.49 28.08 C74.93 21.24, 80.88 18.02, 95.23 1.23 M71.42 29.52 C79.77 19.3, 87.11 11.03, 93.45 2.8 M77.47 29.09 C81.44 21.77, 85.19 17.57, 97.07 3.71 M76.67 29.91 C83.02 22.54, 88.14 15.93, 98.3 3.26 M81.31 30.19 C87.56 19.19, 96.07 11.98, 101.55 3.57 M81.69 28.48 C89.75 20.04, 99.31 9.01, 103.39 3.68 M88.56 27.47 C97.14 18.58, 104.85 8.66, 108.16 3.41 M86.31 30.09 C90.74 22.76, 96.63 18.09, 109.41 3.81 M92.51 27.27 C98.79 25.17, 101.38 16.32, 113.62 3.02 M91.9 28.72 C99.91 19.79, 106.66 13.24, 112.9 4.05 M98.53 30.66 C101.54 22.97, 108.24 15.35, 120.37 3.84 M98.34 28.76 C106.24 20.4, 114.69 9.77, 117.52 5.76 M101.88 27.85 C107.17 23.65, 112.23 19.38, 122.54 4.14 M102.48 29.32 C109.97 22.21, 116.25 14.71, 123.62 5.26 M110.33 29.11 C113.22 21.26, 118.5 15.81, 128.45 5.23 M108.45 27.94 C116.36 19.01, 122.12 12.03, 127.38 7.86 M117.36 24.52 C118.9 23.08, 125.8 16.63, 133.21 8.11 M115.5 26.21 C119.92 19.71, 125.38 13.92, 131.08 7.44 M122.07 24.85 C128.33 20.68, 133.91 12.93, 135.95 9.17 M121.55 25.48 C125.45 21.14, 129.07 16.21, 134.99 9.93 M128.41 23.52 C129.79 21.16, 132.54 17.13, 139.01 9.91 M127.1 24.67 C131.54 19.47, 137.36 13.36, 140.24 9.84 M132.98 25.47 C135.07 21.72, 139.46 16.84, 143.78 14.3 M132.72 25.88 C136.03 22.19, 138.97 17.65, 143.36 13.72" stroke="#868e96" stroke-width="0.5" fill="none"></path><path d="M44.25 1.88 C54.36 1, 68.41 0.22, 80.33 0.31 C92.25 0.39, 105.88 0.99, 115.75 2.4 C125.62 3.81, 134.85 6.41, 139.55 8.76 C144.26 11.11, 145.49 14.16, 144 16.51 C142.51 18.86, 137.63 20.98, 130.61 22.87 C123.58 24.75, 112.87 27.01, 101.87 27.84 C90.86 28.67, 76.71 28.11, 64.57 27.83 C52.43 27.55, 38.66 27.42, 29.04 26.15 C19.41 24.88, 11.4 22.65, 6.8 20.21 C2.2 17.77, 0.02 13.81, 1.43 11.51 C2.84 9.2, 7.24 8.08, 15.24 6.37 C23.25 4.65, 42.8 1.98, 49.47 1.19 C56.15 0.41, 54.84 1.37, 55.28 1.68 M46.05 0.56 C56.38 -0.27, 72.28 -0.2, 84.28 0 C96.29 0.19, 108.71 0.14, 118.08 1.73 C127.45 3.32, 136.08 6.93, 140.52 9.53 C144.96 12.12, 146.95 14.96, 144.73 17.32 C142.51 19.67, 135.11 22.08, 127.22 23.64 C119.32 25.19, 108.55 26.15, 97.34 26.65 C86.14 27.15, 71.95 27.11, 59.96 26.64 C47.98 26.17, 34.48 25.37, 25.44 23.84 C16.4 22.31, 9.95 19.44, 5.73 17.48 C1.52 15.53, -1.64 14.33, 0.16 12.11 C1.96 9.88, 8.71 6.18, 16.56 4.15 C24.41 2.13, 42.17 0.61, 47.26 -0.04 C52.36 -0.68, 46.98 -0.33, 47.12 0.29" stroke="#000000" stroke-width="1" fill="none"></path></g><g stroke-linecap="round" transform="translate(328.6604711163825 274.7448984894877) rotate(316.6118410112644 97.37303136402653 97.6816213308295)"><path d="M97 1.55 C121.4 24.44, 149.39 51.24, 194.95 98.27 M98.88 -0.88 C129.11 31.01, 161.49 63.1, 194.26 97.92 M194.08 99.79 C168.49 122.77, 143.01 150.31, 99.24 195.19 M195.69 97.61 C165.39 127.88, 136.74 157.09, 98.23 196.13 M98.5 193.43 C66.99 163.49, 40.18 138.35, -1.7 99.22 M97.55 195.85 C59.67 157.9, 21.71 119.76, -0.67 97.63 M-1.26 98.29 C29.53 66.18, 60.11 37.78, 98.6 -0.72 M-0.26 98.56 C27.46 71.88, 53.17 45.97, 98.28 0.21" stroke="#343a40" stroke-width="1" fill="none"></path></g><g stroke-linecap="round"><g transform="translate(154 73) rotate(0 97.5 1.5)"><path d="M0 0 C32.5 0.5, 162.5 2.5, 195 3 M0 0 C32.5 0.5, 162.5 2.5, 195 3" stroke="#343a40" stroke-width="1" fill="none"></path></g><g transform="translate(154 73) rotate(0 97.5 1.5)"><path d="M166.65 12.83 C173.69 10.39, 180.72 7.95, 195 3 M166.65 12.83 C177.74 8.98, 188.84 5.14, 195 3" stroke="#343a40" stroke-width="1" fill="none"></path></g><g transform="translate(154 73) rotate(0 97.5 1.5)"><path d="M166.97 -7.69 C173.92 -5.04, 180.88 -2.39, 195 3 M166.97 -7.69 C177.94 -3.51, 188.9 0.67, 195 3" stroke="#343a40" stroke-width="1" fill="none"></path></g></g><g stroke-linecap="round"><g transform="translate(499 81.91201866218023) rotate(0 86 0.18911728065444322)"><path d="M0 0 C28.67 0.06, 143.33 0.32, 172 0.38 M0 0 C28.67 0.06, 143.33 0.32, 172 0.38" stroke="#343a40" stroke-width="1" fill="none"></path></g><g transform="translate(499 81.91201866218023) rotate(0 86 0.18911728065444322)"><path d="M143.79 10.58 C151.73 7.71, 159.66 4.84, 172 0.38 M143.79 10.58 C153.53 7.05, 163.28 3.53, 172 0.38" stroke="#343a40" stroke-width="1" fill="none"></path></g><g transform="translate(499 81.91201866218023) rotate(0 86 0.18911728065444322)"><path d="M143.83 -9.94 C151.76 -7.04, 159.68 -4.14, 172 0.38 M143.83 -9.94 C153.56 -6.38, 163.29 -2.81, 172 0.38" stroke="#343a40" stroke-width="1" fill="none"></path></g></g><g stroke-linecap="round"><g transform="translate(756.9705243246126 122) rotate(0 -1.2674574751692944 94.49838583467908)"><path d="M0 0 C-0.42 31.5, -2.11 157.5, -2.53 189 M0 0 C-0.42 31.5, -2.11 157.5, -2.53 189" stroke="#343a40" stroke-width="1" fill="none"></path></g><g transform="translate(756.9705243246126 122) rotate(0 -1.2674574751692944 94.49838583467908)"><path d="M-12.42 160.67 C-10.05 167.45, -7.68 174.24, -2.53 189 M-12.42 160.67 C-9.03 170.38, -5.64 180.1, -2.53 189" stroke="#343a40" stroke-width="1" fill="none"></path></g><g transform="translate(756.9705243246126 122) rotate(0 -1.2674574751692944 94.49838583467908)"><path d="M8.1 160.95 C5.56 167.66, 3.01 174.38, -2.53 189 M8.1 160.95 C4.45 170.57, 0.81 180.18, -2.53 189" stroke="#343a40" stroke-width="1" fill="none"></path></g></g><g stroke-linecap="round"><g transform="translate(683.9369649338842 372.9831145190892) rotate(0 -93.17004722027701 -2.018019684127239)"><path d="M0 0 C-31.06 -0.67, -155.28 -3.36, -186.34 -4.04 M0 0 C-31.06 -0.67, -155.28 -3.36, -186.34 -4.04" stroke="#343a40" stroke-width="1" fill="none"></path></g><g transform="translate(683.9369649338842 372.9831145190892) rotate(0 -93.17004722027701 -2.018019684127239)"><path d="M-157.93 -13.68 C-168.45 -10.11, -178.96 -6.54, -186.34 -4.04 M-157.93 -13.68 C-163.63 -11.75, -169.33 -9.81, -186.34 -4.04" stroke="#343a40" stroke-width="1" fill="none"></path></g><g transform="translate(683.9369649338842 372.9831145190892) rotate(0 -93.17004722027701 -2.018019684127239)"><path d="M-158.38 6.83 C-168.73 2.81, -179.07 -1.21, -186.34 -4.04 M-158.38 6.83 C-163.99 4.65, -169.6 2.47, -186.34 -4.04" stroke="#343a40" stroke-width="1" fill="none"></path></g></g><g transform="translate(390 58.5) rotate(0 36 25)"><text x="36" y="18" font-family="Virgil, Segoe UI Emoji" font-size="20px" fill="#343a40" text-anchor="middle" style="white-space: pre;" direction="ltr">sensor </text><text x="36" y="43" font-family="Virgil, Segoe UI Emoji" font-size="20px" fill="#343a40" text-anchor="middle" style="white-space: pre;" direction="ltr">data</text></g><g transform="translate(699.5 345) rotate(0 61.5 37.5)"><text x="61.5" y="18" font-family="Virgil, Segoe UI Emoji" font-size="20px" fill="#343a40" text-anchor="middle" style="white-space: pre;" direction="ltr">parsed</text><text x="61.5" y="43" font-family="Virgil, Segoe UI Emoji" font-size="20px" fill="#343a40" text-anchor="middle" style="white-space: pre;" direction="ltr">data. Human</text><text x="61.5" y="68" font-family="Virgil, Segoe UI Emoji" font-size="20px" fill="#343a40" text-anchor="middle" style="white-space: pre;" direction="ltr">readable</text></g><g transform="translate(366.5 350.5) rotate(0 60.5 25)"><text x="60.5" y="18" font-family="Virgil, Segoe UI Emoji" font-size="20px" fill="#343a40" text-anchor="middle" style="white-space: pre;" direction="ltr">Visualization</text><text x="60.5" y="43" font-family="Virgil, Segoe UI Emoji" font-size="20px" fill="#343a40" text-anchor="middle" style="white-space: pre;" direction="ltr">Grafana</text></g><g stroke-linecap="round" transform="translate(672.5 51.5) rotate(0 89 34.5)"><path d="M0 0 C0 0, 0 0, 0 0 M0 0 C0 0, 0 0, 0 0 M0.22 7.07 C0.3 4.7, 2.88 2.79, 4.46 0.19 M-0.17 6.58 C1.07 4.98, 2.47 2.95, 4.92 0.73 M-1.16 11 C4.2 7.1, 5.87 4.08, 9.09 -0.55 M0.71 11.89 C3.16 8.79, 4.3 6.22, 9.98 -0.02 M0.47 18.5 C4.87 13.98, 11.3 5.82, 16.81 -0.12 M0.58 18.34 C2.53 13.98, 5.76 10.96, 15.39 1.02 M0.47 23.42 C4.38 20.45, 9.91 11.84, 20.1 1.07 M0.08 23.15 C4.52 18.12, 10.05 12.13, 22.13 0.91 M-0.2 30.45 C8.19 23.27, 13.3 12.14, 28.23 0.31 M-0.19 30.18 C5.22 24.85, 10.63 18.51, 25.69 0.17 M0.32 38.72 C8.71 30.09, 12.58 21.7, 32.04 -0.5 M0.62 37.32 C8.93 26.61, 17.54 16.29, 31.32 0.54 M1.01 44.39 C10.87 30.82, 19.37 21.4, 38.79 1.66 M1.1 41.95 C12.68 27.12, 25.22 11.98, 36.91 1.22 M0.37 49.45 C8.44 40.58, 19.64 30.04, 43.8 1.38 M-0.13 49.4 C16.47 29.57, 32.18 11.33, 43.48 0.06 M-0.49 52.99 C16.44 35.27, 31.95 19.03, 45.7 1.52 M-0.52 54.9 C10.56 41.72, 20.67 29.95, 48.29 -0.18 M1.3 59.83 C11.7 47.8, 23.43 30.43, 54.03 -0.36 M-0.6 61.85 C13.06 45.87, 25.78 32.85, 53.28 -0.66 M1.4 67.78 C18.74 43.71, 40.41 23.56, 56.51 0.66 M-0.08 67.72 C21.02 42.38, 42.34 18.39, 58.18 -0.19 M0.75 70.21 C15.42 54.77, 26.54 43.23, 62.69 -0.65 M2.43 70.31 C24.59 43.78, 48.73 17.98, 62.97 -0.09 M7.32 69.91 C25.7 51.69, 40.15 30.17, 67.14 0.97 M6.12 70.2 C30.19 43.89, 54.63 15.91, 68.99 0.16 M13.31 68.84 C35.73 41.47, 63.2 14.4, 73.12 -0.25 M12.88 70.28 C30.18 51.29, 47.08 31.06, 75.38 -0.02 M16.12 69.77 C36.79 47.18, 61.39 20.48, 79.81 -0.48 M17.25 71.88 C33.64 52.94, 50.45 35.02, 80.21 0.05 M24.81 72.47 C40.13 49.54, 62.35 26.54, 85.96 0.22 M22.65 70.8 C46.86 41.21, 71.87 13.57, 84.91 -0.57 M29.3 72.4 C39.08 57.43, 52.47 41.4, 89.11 -1.48 M27.4 70.48 C43.32 54.25, 56.65 38, 89.41 -0.17 M33.98 69.18 C49.81 52.16, 64.27 37.35, 97.23 -1.68 M34.25 70.27 C54.43 45.34, 76.12 20.34, 96.56 -1.2 M38.99 69.22 C59.16 45.73, 82.92 18.94, 99.97 -0.64 M38.46 70.62 C58.2 50.17, 77.05 27.13, 101.24 -0.01 M45.85 70.23 C64.96 45.45, 84.5 24.58, 108.28 -0.25 M45.27 71.28 C61.48 51.22, 79 29.72, 106.87 0.32 M50.68 71.82 C63.87 57.23, 76.2 41.39, 109.66 0.57 M49.96 70.57 C72.93 44.23, 94.43 17.82, 110.43 0.23 M53.84 72.03 C72.39 52.62, 86.75 31.61, 115.15 1.13 M55.37 71.56 C79.14 43.48, 102.56 16.76, 116.34 -0.36 M61.18 69.93 C83.5 44.78, 106.68 14.07, 121.81 -0.18 M59.95 71.3 C77.43 53.53, 92.35 33.85, 122.79 0.41 M65.67 70.14 C78.34 55.07, 91.95 37.91, 125.19 0.95 M65.28 71.03 C87.86 45.45, 108.68 21, 127 -0.18 M72.65 69.43 C93.78 41.24, 119.8 14.8, 132.37 -0.02 M70.11 71.43 C88.63 50.52, 105.68 31.73, 132.19 -0.47 M77.45 69.27 C93.94 50.7, 111.64 30.23, 139.12 2.15 M75.85 70.79 C94.18 49.77, 109.75 31.17, 137.49 0.84 M82.61 70.38 C104.83 44.8, 125.94 18.62, 143.64 -0.97 M80.66 70.27 C101.16 47.14, 121.8 24.64, 143.59 0.82 M87.59 69.31 C103.33 52.84, 114.74 37.49, 147.68 -0.94 M86.95 70.09 C111.48 43.98, 133.84 14.93, 148.69 -0.38 M93.9 68.98 C111.33 46.71, 135.29 23.15, 154.28 0.13 M91.41 70.78 C113.74 48.01, 133.82 24.18, 154.05 0.63 M98.86 71.28 C111.49 56.89, 125.78 40.57, 156.92 0.16 M98.57 71.37 C117.51 46.13, 137.34 23.85, 158.04 -0.26 M104.72 71.59 C126.79 44.62, 150.37 18.85, 165.27 1.6 M102.77 70.62 C116.04 55.9, 129.3 40.96, 163.67 -0.49 M107.74 72.13 C133.16 43.5, 155.89 16.27, 170.28 2.09 M107.11 71.98 C124.6 53.05, 140.46 34.27, 168.58 0.45 M114.61 72.73 C124.67 58.17, 140.63 41.93, 173.95 -1.09 M112.69 71.09 C134.75 45.13, 157.07 20.45, 174.64 -0.82 M116.99 71.69 C138.64 48.83, 156.51 26.15, 177.83 0.4 M119.01 70.2 C139.76 46.94, 161.91 22.02, 179.27 0.44 M122.45 69.06 C145.44 47.53, 166.83 21.74, 177.44 6.23 M123.73 70.19 C141.37 52.82, 157.08 34.7, 179.69 7.06 M129.76 71.22 C150.09 48.1, 169.79 24.52, 178.51 12.62 M129.82 70.73 C144.16 53.09, 160.44 34.93, 180.1 13.86 M136.47 69.42 C142.89 62.14, 151.06 51.77, 178.39 20.31 M134.01 71.57 C145.75 57.73, 157.64 44.69, 178.79 19.2 M138.19 72.37 C153.72 54.45, 166.95 39.35, 180.94 25.29 M139.85 70.69 C149.59 60.41, 157.63 51.25, 178.02 26.42 M144.23 68.79 C154.68 59.4, 168.83 44.5, 179.09 31.58 M146.23 71.57 C152.05 63.81, 158.35 55.75, 180.3 32.3 M148.79 71.97 C158.65 60.3, 165.83 52.01, 179.23 38.16 M150.44 71.37 C159.55 59.18, 170.92 49.03, 179.7 38.56 M154.65 70.31 C165.3 62.96, 172.5 52.88, 178.27 44.13 M156.68 70.18 C160.96 64.32, 165.83 59.93, 178.74 42.77 M160.38 71.96 C164.95 66.42, 169.55 57.68, 180.84 51.41 M161.06 71.24 C166.83 64.36, 171.71 57.45, 178.4 49.63 M167.92 71.25 C168.47 67.8, 171.35 66, 180.25 57.87 M166.22 70.12 C169.22 66.26, 173.55 62.52, 179.03 55.94 M170.7 70.07 C173.85 69.28, 174.43 66.15, 179.32 61.13 M171.95 70.93 C173.76 68.2, 175.69 65.57, 179.53 61.91" stroke="#7950f2" stroke-width="0.5" fill="none"></path><path d="M1.47 0.19 C59 -1.14, 115.83 -1.03, 176.3 0.81 M0.12 -0.07 C40.75 -0.33, 80.87 0.5, 178.09 0.5 M178.3 0.31 C177.38 16.49, 179.42 37.38, 176.74 70.12 M177.18 0.66 C176.59 17.79, 177.73 36.69, 178.81 68.6 M178.15 68.55 C137.52 66.13, 98.52 66.85, 1.74 70.57 M178.29 68.36 C127.27 70.26, 75.99 69.76, 0.94 69.79 M-1.1 67.48 C-1.03 49.13, 1.16 28.13, -0.07 -1.19 M-0.52 69.46 C1.08 51, -0.58 35.01, -0.48 0.28" stroke="#5f3dc4" stroke-width="1" fill="none"></path></g><g transform="translate(694 70.5) rotate(0 69 17.5)"><text x="0" y="25" font-family="Virgil, Segoe UI Emoji" font-size="28px" fill="#343a40" text-anchor="start" style="white-space: pre;" direction="ltr">formula(s)</text></g></svg>